<?xml version="1.0" standalone="no"?>
<!DOCTYPE svg PUBLIC "-//W3C//DTD SVG 20010904//EN"
 "http://www.w3.org/TR/2001/REC-SVG-20010904/DTD/svg10.dtd">
<svg version="1.0" xmlns="http://www.w3.org/2000/svg"
 width="300.000000pt" height="300.000000pt" viewBox="0 0 300.000000 300.000000"
 preserveAspectRatio="xMidYMid meet">
<metadata>
Created by potrace 1.10, written by Peter Selinger 2001-2011
</metadata>
<g transform="translate(0.000000,300.000000) scale(0.100000,-0.100000)"
fill="#000000" stroke="none">
<path d="M925 2980 c-8 -13 20 -24 40 -16 8 3 15 10 15 16 0 13 -47 13 -55 0z"/>
<path d="M1010 2980 c-13 -9 -13 -11 -1 -19 17 -11 43 -3 38 12 -5 15 -20 18
-37 7z"/>
<path d="M950 2940 c0 -5 14 -10 30 -10 17 0 30 5 30 10 0 6 -13 10 -30 10
-16 0 -30 -4 -30 -10z"/>
<path d="M1011 2911 c-8 -5 -11 -16 -8 -25 7 -17 43 -21 66 -7 12 8 12 12 2
25 -15 18 -39 20 -60 7z"/>
<path d="M905 2901 c-7 -13 17 -24 40 -19 9 1 16 8 16 13 0 14 -48 19 -56 6z"/>
<path d="M945 2861 c-7 -12 31 -25 45 -16 5 3 10 10 10 16 0 12 -47 12 -55 0z"/>
<path d="M1000 2824 c0 -11 8 -14 27 -12 39 4 42 28 4 28 -21 0 -31 -5 -31
-16z"/>
<path d="M920 2820 c-13 -9 -13 -11 0 -20 8 -5 20 -10 25 -10 6 0 17 5 25 10
13 9 13 11 0 20 -8 5 -19 10 -25 10 -5 0 -17 -5 -25 -10z"/>
<path d="M975 2780 c-11 -18 10 -32 41 -28 40 4 38 32 -3 36 -17 2 -34 -2 -38
-8z"/>
<path d="M875 2771 c-7 -13 17 -24 40 -19 9 1 16 8 16 13 0 14 -48 19 -56 6z"/>
<path d="M932 2739 c-32 -12 -22 -34 14 -34 19 0 30 6 32 16 4 21 -17 29 -46
18z"/>
<path d="M1009 2692 c-12 -11 -18 -22 -13 -25 13 -7 56 14 62 31 6 18 -23 15
-49 -6z"/>
<path d="M1044 2656 c-18 -14 -18 -15 -1 -21 19 -8 50 12 41 26 -7 13 -17 11
-40 -5z"/>
<path d="M964 2629 c-3 -6 -1 -16 5 -22 8 -8 17 -5 33 11 l22 22 -26 0 c-15 0
-30 -5 -34 -11z"/>
<path d="M1014 2605 c-18 -15 -18 -15 10 -13 16 2 31 9 34 16 5 17 -20 15 -44
-3z"/>
<path d="M1077 2592 c-10 -10 -14 -22 -10 -25 12 -12 50 -7 63 8 27 33 -24 49
-53 17z"/>
<path d="M990 2553 c-14 -10 -18 -19 -12 -25 13 -13 48 -2 55 17 8 20 -18 26
-43 8z"/>
<path d="M1041 2527 c-6 -8 -8 -17 -5 -20 9 -8 44 11 44 23 0 15 -26 12 -39
-3z"/>
<path d="M1105 2526 c-11 -8 -17 -18 -13 -21 11 -11 60 4 56 17 -6 18 -22 20
-43 4z"/>
<path d="M1038 2479 c-10 -5 -18 -14 -18 -19 0 -14 34 -12 48 2 26 26 5 38
-30 17z"/>
<path d="M1096 2461 c-14 -15 -14 -19 -3 -24 17 -6 59 13 65 31 6 19 -43 14
-62 -7z"/>
<path d="M1162 2438 c-19 -19 -15 -48 8 -48 18 0 40 26 40 49 0 15 -33 14 -48
-1z"/>
<path d="M1220 2421 c-12 -24 -13 -41 -2 -41 12 0 52 39 52 50 0 18 -39 10
-50 -9z"/>
<path d="M1012 2418 c-17 -17 -15 -28 6 -28 11 0 27 9 37 20 18 19 17 20 -6
20 -14 0 -30 -5 -37 -12z"/>
<path d="M1068 2400 c-18 -14 -20 -21 -11 -31 9 -9 17 -8 37 5 15 9 26 20 26
25 0 19 -30 19 -52 1z"/>
<path d="M1229 2361 c-17 -14 -21 -23 -14 -30 13 -13 55 13 55 35 0 19 -13 18
-41 -5z"/>
<path d="M1144 2345 c-25 -25 -25 -45 0 -45 18 0 59 47 51 59 -10 17 -24 13
-51 -14z"/>
<path d="M1247 2309 c-21 -12 -23 -39 -2 -39 16 0 39 36 27 44 -4 2 -15 0 -25
-5z"/>
<path d="M1302 2304 c-25 -17 -29 -44 -8 -44 16 0 46 26 46 40 0 17 -17 19
-38 4z"/>
<path d="M1165 2280 c-16 -18 -16 -20 -1 -26 19 -7 46 12 46 32 0 20 -24 17
-45 -6z"/>
<path d="M1415 2245 c-3 -8 -7 -22 -10 -30 -2 -8 0 -17 5 -20 12 -7 44 41 35
55 -9 15 -25 12 -30 -5z"/>
<path d="M1205 2230 c-17 -19 -15 -50 4 -50 20 0 54 37 48 53 -9 23 -30 21
-52 -3z"/>
<path d="M1285 2220 c-10 -11 -15 -23 -12 -26 8 -8 57 23 57 36 0 17 -26 11
-45 -10z"/>
<path d="M1346 2224 c-20 -19 -20 -22 -1 -41 23 -22 45 -9 45 27 0 34 -19 40
-44 14z"/>
<path d="M1448 2190 c-19 -26 -23 -50 -9 -50 16 0 33 29 29 52 l-3 23 -17 -25z"/>
<path d="M1270 2159 c-10 -18 -9 -20 12 -17 12 2 24 11 26 21 5 24 -25 22 -38
-4z"/>
<path d="M1527 2173 c-10 -9 -8 -53 2 -53 5 0 14 7 21 15 20 24 -2 59 -23 38z"/>
<path d="M1386 2155 c-19 -19 -22 -69 -3 -63 21 8 43 56 31 68 -8 8 -16 7 -28
-5z"/>
<path d="M1316 2138 c-8 -12 -13 -25 -10 -30 8 -12 48 15 52 36 5 23 -24 20
-42 -6z"/>
<path d="M1477 2143 c-4 -3 -7 -15 -7 -25 0 -26 24 -17 28 10 3 21 -8 29 -21
15z"/>
<path d="M1597 2123 c-4 -3 -7 -17 -7 -30 0 -33 24 -24 28 10 3 26 -7 35 -21
20z"/>
<path d="M1433 2112 c-16 -10 -20 -44 -6 -49 15 -5 34 29 25 45 -4 6 -13 8
-19 4z"/>
<path d="M1551 2101 c-6 -11 -11 -27 -11 -37 0 -13 3 -14 14 -5 17 15 27 49
16 56 -5 3 -14 -3 -19 -14z"/>
<path d="M1482 2078 c-14 -14 -16 -54 -3 -62 4 -3 16 3 26 13 28 32 6 78 -23
49z"/>
<path d="M1657 2083 c-4 -3 -7 -15 -7 -26 0 -19 1 -20 20 -2 11 10 20 22 20
27 0 10 -24 11 -33 1z"/>
<path d="M1697 2063 c-10 -10 -8 -33 3 -33 5 0 14 9 20 20 8 15 8 20 -3 20 -8
0 -17 -3 -20 -7z"/>
<path d="M1561 2042 c-14 -27 -14 -32 3 -32 18 0 30 30 17 43 -6 6 -13 1 -20
-11z"/>
<path d="M1610 2041 c-5 -11 -10 -24 -10 -30 0 -17 27 -13 34 5 16 41 -4 62
-24 25z"/>
<path d="M1749 2029 c-8 -16 -8 -24 1 -33 9 -8 16 -5 31 13 10 12 16 27 13 32
-9 16 -33 10 -45 -12z"/>
<path d="M1655 2010 c-20 -22 -15 -36 10 -27 8 4 15 16 15 27 0 25 -2 25 -25
0z"/>
<path d="M1702 2018 c-7 -7 -12 -19 -12 -27 0 -11 4 -10 20 4 21 19 26 35 12
35 -4 0 -13 -5 -20 -12z"/>
<path d="M1806 1991 c-13 -15 -16 -25 -9 -32 13 -13 36 14 31 37 -3 14 -6 13
-22 -5z"/>
<path d="M1751 1961 c-6 -10 -7 -21 -4 -25 9 -8 33 14 33 30 0 20 -18 17 -29
-5z"/>
<path d="M1702 1958 c-14 -14 -16 -38 -4 -38 12 0 32 23 32 37 0 16 -12 17
-28 1z"/>
<path d="M1836 1954 c-9 -8 -16 -24 -16 -35 0 -16 3 -18 19 -10 18 10 31 32
31 52 0 14 -17 11 -34 -7z"/>
<path d="M1778 1923 c-19 -21 -24 -43 -9 -43 15 0 33 28 29 46 -3 14 -5 14
-20 -3z"/>
<path d="M1886 1893 c-4 -4 -16 -8 -28 -8 -22 0 -47 -29 -35 -41 4 -4 18 -2
32 4 14 7 36 17 50 24 14 6 25 15 25 20 0 10 -34 11 -44 1z"/>
<path d="M1786 1871 c-19 -20 -21 -44 -4 -39 18 6 40 45 30 52 -5 3 -17 -3
-26 -13z"/>
<path d="M1923 1863 c-7 -2 -13 -12 -13 -20 0 -10 6 -13 16 -9 9 3 18 6 20 6
2 0 4 7 4 15 0 15 -6 17 -27 8z"/>
<path d="M1853 1833 c-17 -6 -17 -33 0 -33 14 0 37 20 37 32 0 9 -18 9 -37 1z"/>
<path d="M1890 1805 c-7 -9 -11 -17 -9 -19 7 -7 49 13 49 24 0 15 -26 12 -40
-5z"/>
<path d="M1952 1798 c-18 -18 -14 -38 7 -38 20 0 51 25 51 41 0 13 -44 11 -58
-3z"/>
<path d="M1871 1753 c-29 -20 -13 -40 18 -24 12 7 21 16 21 21 0 17 -17 19
-39 3z"/>
<path d="M1927 1739 c-20 -12 -23 -29 -3 -29 17 0 40 26 29 33 -5 3 -16 1 -26
-4z"/>
<path d="M1976 1731 c-13 -15 -14 -20 -4 -24 18 -6 48 11 48 28 0 21 -24 19
-44 -4z"/>
<path d="M1923 1689 c-29 -11 -31 -39 -3 -32 23 6 44 29 33 36 -4 3 -18 1 -30
-4z"/>
<path d="M1988 1684 c-30 -16 -36 -30 -15 -37 17 -6 69 22 65 35 -6 18 -21 18
-50 2z"/>
<path d="M1898 1629 c-10 -5 -18 -14 -18 -19 0 -17 36 -11 55 10 17 19 17 20
-1 20 -10 0 -27 -5 -36 -11z"/>
<path d="M1949 1611 c-23 -18 -23 -20 -5 -27 21 -8 51 7 51 26 0 22 -20 22
-46 1z"/>
<path d="M2035 1610 c-4 -7 -3 -16 3 -22 14 -14 57 -6 57 12 0 18 -50 26 -60
10z"/>
<path d="M1967 1564 c-12 -13 4 -24 34 -24 20 0 29 4 27 13 -5 13 -50 22 -61
11z"/>
<path d="M2053 1548 c2 -7 14 -13 27 -13 13 0 25 6 28 13 2 8 -7 12 -28 12
-21 0 -30 -4 -27 -12z"/>
<path d="M2007 1523 c-26 -7 -10 -23 23 -23 33 0 48 15 24 24 -17 6 -19 6 -47
-1z"/>
<path d="M1956 1478 c-21 -12 -20 -25 3 -33 23 -7 51 3 51 20 0 17 -33 25 -54
13z"/>
<path d="M2064 1475 c-19 -15 -19 -15 0 -30 11 -8 25 -15 31 -15 6 0 20 7 31
15 19 15 19 15 0 30 -11 8 -25 15 -31 15 -6 0 -20 -7 -31 -15z"/>
<path d="M2001 1431 c-17 -11 -5 -31 19 -31 24 0 36 20 19 31 -8 5 -16 9 -19
9 -3 0 -11 -4 -19 -9z"/>
<path d="M2050 1385 c0 -12 8 -16 33 -13 17 2 32 8 32 13 0 6 -15 11 -32 13
-25 3 -33 -1 -33 -13z"/>
<path d="M1967 1382 c-10 -2 -16 -9 -14 -15 4 -14 67 -16 68 -2 1 12 -31 22
-54 17z"/>
<path d="M2027 1339 c-14 -8 -16 -14 -6 -25 13 -16 57 -18 79 -4 13 9 12 12
-4 25 -23 17 -44 19 -69 4z"/>
<path d="M1923 1333 c-28 -11 -13 -33 21 -33 44 0 55 17 21 30 -14 6 -27 10
-28 9 -1 0 -8 -3 -14 -6z"/>
<path d="M1954 1279 c-8 -14 3 -24 43 -37 37 -12 49 -2 33 28 -12 22 -64 28
-76 9z"/>
<path d="M1885 1260 c-3 -5 6 -17 20 -26 20 -13 29 -14 38 -5 9 10 8 16 -7 27
-23 16 -42 18 -51 4z"/>
<path d="M1966 1205 c6 -15 42 -30 51 -21 12 12 -8 36 -31 36 -18 0 -24 -4
-20 -15z"/>
<path d="M1909 1190 c13 -11 32 -20 44 -20 19 0 20 1 2 20 -10 11 -30 20 -44
20 l-26 -1 24 -19z"/>
<path d="M1820 1182 c0 -14 35 -42 53 -42 20 0 22 21 5 38 -14 14 -58 16 -58
4z"/>
<path d="M1931 1141 c-19 -12 -7 -39 23 -52 53 -25 78 19 26 46 -34 18 -31 17
-49 6z"/>
<path d="M1850 1115 c0 -21 39 -40 54 -25 8 8 6 15 -8 26 -25 18 -46 18 -46
-1z"/>
<path d="M1787 1093 c-12 -11 25 -43 50 -43 25 0 30 12 11 28 -19 14 -53 23
-61 15z"/>
<path d="M1725 1060 c-11 -18 15 -40 46 -40 37 0 37 15 -1 35 -35 18 -37 18
-45 5z"/>
<path d="M1890 1057 c0 -18 21 -37 41 -37 26 0 32 16 13 34 -19 19 -54 21 -54
3z"/>
<path d="M1833 1014 c-8 -22 21 -44 59 -44 32 0 36 10 11 32 -30 26 -62 32
-70 12z"/>
<path d="M1652 989 c3 -24 33 -48 44 -36 4 4 2 18 -4 32 -14 31 -45 34 -40 4z"/>
<path d="M1741 994 c-20 -14 -20 -17 -6 -45 9 -16 20 -29 25 -29 22 0 25 2 22
16 -2 8 5 14 18 14 22 0 27 22 8 37 -25 19 -46 21 -67 7z m49 -18 c0 -11 -19
-15 -25 -6 -3 5 1 10 9 10 9 0 16 -2 16 -4z"/>
<path d="M1555 970 c-9 -15 22 -60 40 -60 21 0 19 34 -3 53 -22 20 -28 21 -37
7z"/>
<path d="M1630 951 c0 -6 11 -23 25 -38 23 -26 24 -26 25 -7 0 11 -8 28 -18
37 -21 19 -32 22 -32 8z"/>
<path d="M1700 911 c0 -22 25 -39 38 -27 8 8 -10 38 -26 44 -7 2 -12 -6 -12
-17z"/>
<path d="M1403 904 c-3 -10 4 -26 20 -42 23 -23 27 -24 33 -9 7 18 -20 67 -37
67 -5 0 -12 -7 -16 -16z"/>
<path d="M1470 901 c0 -13 40 -61 51 -61 16 0 10 36 -9 53 -20 18 -42 22 -42
8z"/>
<path d="M1546 902 c-6 -11 21 -52 35 -52 13 0 11 34 -3 48 -14 14 -25 15 -32
4z"/>
<path d="M1615 871 c-9 -15 16 -60 38 -67 31 -10 41 10 23 45 -16 30 -48 42
-61 22z"/>
<path d="M1396 853 c-10 -10 -7 -51 4 -58 5 -3 7 -12 3 -21 -6 -17 23 -54 44
-54 15 0 18 36 3 45 -6 4 -8 11 -4 16 15 25 -31 91 -50 72z"/>
<path d="M1554 826 c-7 -19 13 -56 30 -56 21 0 25 11 14 35 -13 29 -37 40 -44
21z"/>
<path d="M1475 820 c-8 -13 21 -66 41 -74 40 -15 39 28 -2 68 -18 18 -30 20
-39 6z"/>
<path d="M1310 787 c0 -16 42 -57 58 -57 19 0 14 28 -8 50 -23 23 -50 26 -50
7z"/>
<path d="M1264 759 c-3 -6 3 -21 15 -32 16 -16 23 -19 33 -9 9 9 7 16 -7 32
-20 23 -31 25 -41 9z"/>
<path d="M1195 721 c-9 -16 40 -65 58 -58 22 8 21 23 -3 47 -21 21 -45 26 -55
11z"/>
<path d="M1340 700 c0 -16 26 -40 44 -40 13 0 5 28 -12 43 -24 22 -32 21 -32
-3z"/>
<path d="M1400 706 c0 -8 10 -22 22 -30 30 -22 48 -3 23 24 -21 23 -45 26 -45
6z"/>
<path d="M1286 692 c-7 -12 32 -48 41 -38 8 8 -8 38 -24 43 -6 2 -14 0 -17 -5z"/>
<path d="M1162 634 c2 -11 11 -20 22 -22 13 -3 17 1 14 14 -2 11 -11 20 -22
22 -13 3 -17 -1 -14 -14z"/>
<path d="M1210 640 c0 -17 40 -51 51 -44 6 4 2 15 -12 30 -24 25 -39 31 -39
14z"/>
<path d="M1283 634 c-8 -20 21 -48 42 -41 12 5 14 11 6 26 -14 26 -40 34 -48
15z"/>
<path d="M1130 596 c0 -19 26 -38 45 -34 14 3 14 5 0 26 -18 24 -45 30 -45 8z"/>
<path d="M1210 575 c0 -19 36 -39 45 -25 8 13 -13 40 -31 40 -8 0 -14 -7 -14
-15z"/>
<path d="M1120 545 c0 -19 41 -37 55 -23 7 6 3 14 -9 24 -26 18 -46 18 -46 -1z"/>
<path d="M1042 528 c7 -21 42 -38 58 -27 13 8 12 11 -4 24 -23 18 -59 20 -54
3z"/>
<path d="M1144 498 c-4 -5 0 -14 7 -19 20 -13 51 -11 47 3 -6 17 -46 29 -54
16z"/>
<path d="M1017 493 c-11 -10 13 -33 34 -33 25 0 24 16 0 30 -23 12 -26 12 -34
3z"/>
<path d="M1090 470 c0 -13 48 -36 56 -27 4 4 1 13 -6 22 -14 17 -50 20 -50 5z"/>
<path d="M975 441 c-7 -13 23 -41 44 -41 27 0 33 12 14 32 -17 19 -48 24 -58
9z"/>
<path d="M1057 444 c-10 -11 3 -24 24 -24 23 0 25 15 3 24 -19 7 -19 7 -27 0z"/>
<path d="M1070 390 c0 -13 32 -28 48 -23 10 4 10 8 1 19 -13 16 -49 19 -49 4z"/>
<path d="M1024 365 c27 -21 53 -20 36 0 -7 8 -22 15 -34 15 -21 -1 -21 -1 -2
-15z"/>
<path d="M972 358 c3 -7 13 -15 22 -16 12 -3 17 1 14 10 -3 7 -13 15 -22 16
-12 3 -17 -1 -14 -10z"/>
<path d="M1030 329 c0 -7 -12 -9 -35 -5 -39 8 -47 -7 -14 -25 16 -8 28 -8 46
0 13 6 28 9 33 6 5 -3 12 0 16 6 7 12 -12 29 -33 29 -7 0 -13 -5 -13 -11z"/>
<path d="M930 280 c-13 -9 -13 -11 0 -20 8 -5 17 -10 20 -10 3 0 12 5 20 10
13 9 13 11 0 20 -8 5 -17 10 -20 10 -3 0 -12 -5 -20 -10z"/>
<path d="M1007 274 c-14 -14 -7 -25 13 -22 12 2 21 8 21 13 0 12 -24 18 -34 9z"/>
<path d="M962 243 c-19 -8 -4 -23 24 -23 16 0 24 5 22 13 -5 13 -26 18 -46 10z"/>
<path d="M904 199 c-7 -12 12 -29 32 -29 6 0 17 6 23 14 9 11 8 15 -5 20 -24
9 -42 7 -50 -5z"/>
<path d="M1003 195 c-7 -21 1 -27 32 -27 31 0 39 6 32 27 -8 20 -56 20 -64 0z"/>
<path d="M950 160 c-12 -8 -12 -10 3 -16 22 -8 50 3 42 16 -8 12 -25 13 -45 0z"/>
<path d="M995 131 c-7 -13 17 -24 40 -19 9 1 16 8 16 13 0 14 -48 19 -56 6z"/>
<path d="M910 111 c0 -6 5 -13 11 -16 15 -10 61 4 54 15 -8 13 -65 13 -65 1z"/>
<path d="M975 80 c-10 -17 5 -30 35 -30 33 0 49 18 29 31 -19 12 -56 11 -64
-1z"/>
<path d="M877 74 c-12 -13 4 -24 34 -24 20 0 29 4 27 13 -5 13 -50 22 -61 11z"/>
<path d="M915 29 c-10 -15 0 -21 30 -21 30 0 40 6 30 21 -8 14 -52 14 -60 0z"/>
</g>
</svg>
